<mxfile host="Electron" modified="2023-06-14T05:25:47.984Z" agent="Mozilla/5.0 (Windows NT 10.0; Win64; x64) AppleWebKit/537.36 (KHTML, like Gecko) draw.io/21.2.8 Chrome/112.0.5615.165 Electron/24.2.0 Safari/537.36" etag="q-so5lBAS71hpKbzSsZy" version="21.2.8" type="device">
  <diagram name="Страница 1" id="O1WO8YMxBC_jG_isHt6l">
    <mxGraphModel dx="1863" dy="606" grid="1" gridSize="10" guides="1" tooltips="1" connect="1" arrows="1" fold="1" page="1" pageScale="1" pageWidth="827" pageHeight="1169" math="1" shadow="0">
      <root>
        <mxCell id="0" />
        <mxCell id="1" parent="0" />
        <mxCell id="j0Hyw92hqJrWt-IBXO2Z-1" value="" style="ellipse;whiteSpace=wrap;html=1;aspect=fixed;fillColor=#000000;" vertex="1" parent="1">
          <mxGeometry x="80" y="190" width="10" height="10" as="geometry" />
        </mxCell>
        <mxCell id="j0Hyw92hqJrWt-IBXO2Z-2" value="" style="ellipse;whiteSpace=wrap;html=1;aspect=fixed;fillColor=#000000;" vertex="1" parent="1">
          <mxGeometry x="80" y="230" width="10" height="10" as="geometry" />
        </mxCell>
        <mxCell id="j0Hyw92hqJrWt-IBXO2Z-3" value="" style="ellipse;whiteSpace=wrap;html=1;aspect=fixed;fillColor=#000000;" vertex="1" parent="1">
          <mxGeometry x="80" y="270" width="10" height="10" as="geometry" />
        </mxCell>
        <mxCell id="j0Hyw92hqJrWt-IBXO2Z-4" value="" style="ellipse;whiteSpace=wrap;html=1;aspect=fixed;fillColor=#000000;" vertex="1" parent="1">
          <mxGeometry x="80" y="310" width="10" height="10" as="geometry" />
        </mxCell>
        <mxCell id="j0Hyw92hqJrWt-IBXO2Z-5" value="" style="ellipse;whiteSpace=wrap;html=1;aspect=fixed;fillColor=#000000;" vertex="1" parent="1">
          <mxGeometry x="80" y="350" width="10" height="10" as="geometry" />
        </mxCell>
        <mxCell id="j0Hyw92hqJrWt-IBXO2Z-6" value="" style="ellipse;whiteSpace=wrap;html=1;aspect=fixed;fillColor=#000000;" vertex="1" parent="1">
          <mxGeometry x="80" y="390" width="10" height="10" as="geometry" />
        </mxCell>
        <mxCell id="j0Hyw92hqJrWt-IBXO2Z-7" value="" style="ellipse;whiteSpace=wrap;html=1;aspect=fixed;fillColor=#000000;" vertex="1" parent="1">
          <mxGeometry x="80" y="430" width="10" height="10" as="geometry" />
        </mxCell>
        <mxCell id="j0Hyw92hqJrWt-IBXO2Z-8" value="" style="ellipse;whiteSpace=wrap;html=1;aspect=fixed;fillColor=#000000;" vertex="1" parent="1">
          <mxGeometry x="80" y="470" width="10" height="10" as="geometry" />
        </mxCell>
        <mxCell id="j0Hyw92hqJrWt-IBXO2Z-9" value="" style="ellipse;whiteSpace=wrap;html=1;aspect=fixed;fillColor=#000000;" vertex="1" parent="1">
          <mxGeometry x="80" y="510" width="10" height="10" as="geometry" />
        </mxCell>
        <mxCell id="j0Hyw92hqJrWt-IBXO2Z-10" value="$$C_{-K}$$" style="text;html=1;align=center;verticalAlign=middle;resizable=0;points=[];autosize=1;strokeColor=none;fillColor=none;" vertex="1" parent="1">
          <mxGeometry x="-10" y="180" width="90" height="30" as="geometry" />
        </mxCell>
        <mxCell id="j0Hyw92hqJrWt-IBXO2Z-11" value="$$C_{-K+1}$$" style="text;html=1;align=center;verticalAlign=middle;resizable=0;points=[];autosize=1;strokeColor=none;fillColor=none;" vertex="1" parent="1">
          <mxGeometry x="-15" y="220" width="100" height="30" as="geometry" />
        </mxCell>
        <mxCell id="j0Hyw92hqJrWt-IBXO2Z-14" value="$$\dots$$" style="text;html=1;align=center;verticalAlign=middle;resizable=0;points=[];autosize=1;strokeColor=none;fillColor=none;" vertex="1" parent="1">
          <mxGeometry x="-5" y="260" width="80" height="30" as="geometry" />
        </mxCell>
        <mxCell id="j0Hyw92hqJrWt-IBXO2Z-15" value="$$C_{-1}$$" style="text;html=1;align=center;verticalAlign=middle;resizable=0;points=[];autosize=1;strokeColor=none;fillColor=none;" vertex="1" parent="1">
          <mxGeometry x="-5" y="300" width="80" height="30" as="geometry" />
        </mxCell>
        <mxCell id="j0Hyw92hqJrWt-IBXO2Z-16" value="$$C_{0}$$" style="text;html=1;align=center;verticalAlign=middle;resizable=0;points=[];autosize=1;strokeColor=none;fillColor=none;" vertex="1" parent="1">
          <mxGeometry x="-5" y="340" width="80" height="30" as="geometry" />
        </mxCell>
        <mxCell id="j0Hyw92hqJrWt-IBXO2Z-17" value="$$C_{1}$$" style="text;html=1;align=center;verticalAlign=middle;resizable=0;points=[];autosize=1;strokeColor=none;fillColor=none;" vertex="1" parent="1">
          <mxGeometry x="-5" y="380" width="80" height="30" as="geometry" />
        </mxCell>
        <mxCell id="j0Hyw92hqJrWt-IBXO2Z-18" value="$$\dots$$" style="text;html=1;align=center;verticalAlign=middle;resizable=0;points=[];autosize=1;strokeColor=none;fillColor=none;" vertex="1" parent="1">
          <mxGeometry x="-5" y="420" width="80" height="30" as="geometry" />
        </mxCell>
        <mxCell id="j0Hyw92hqJrWt-IBXO2Z-19" value="$$C_{K-1}$$" style="text;html=1;align=center;verticalAlign=middle;resizable=0;points=[];autosize=1;strokeColor=none;fillColor=none;" vertex="1" parent="1">
          <mxGeometry x="-10" y="460" width="90" height="30" as="geometry" />
        </mxCell>
        <mxCell id="j0Hyw92hqJrWt-IBXO2Z-20" value="$$C_{K}$$" style="text;html=1;align=center;verticalAlign=middle;resizable=0;points=[];autosize=1;strokeColor=none;fillColor=none;" vertex="1" parent="1">
          <mxGeometry x="-5" y="500" width="80" height="30" as="geometry" />
        </mxCell>
        <mxCell id="j0Hyw92hqJrWt-IBXO2Z-21" value="" style="ellipse;whiteSpace=wrap;html=1;aspect=fixed;" vertex="1" parent="1">
          <mxGeometry x="220" y="205" width="40" height="40" as="geometry" />
        </mxCell>
        <mxCell id="j0Hyw92hqJrWt-IBXO2Z-22" value="" style="ellipse;whiteSpace=wrap;html=1;aspect=fixed;" vertex="1" parent="1">
          <mxGeometry x="220" y="270" width="40" height="40" as="geometry" />
        </mxCell>
        <mxCell id="j0Hyw92hqJrWt-IBXO2Z-23" value="" style="ellipse;whiteSpace=wrap;html=1;aspect=fixed;" vertex="1" parent="1">
          <mxGeometry x="220" y="335" width="40" height="40" as="geometry" />
        </mxCell>
        <mxCell id="j0Hyw92hqJrWt-IBXO2Z-24" value="" style="ellipse;whiteSpace=wrap;html=1;aspect=fixed;" vertex="1" parent="1">
          <mxGeometry x="220" y="460" width="40" height="40" as="geometry" />
        </mxCell>
        <mxCell id="j0Hyw92hqJrWt-IBXO2Z-25" value="" style="ellipse;whiteSpace=wrap;html=1;aspect=fixed;" vertex="1" parent="1">
          <mxGeometry x="220" y="400" width="40" height="40" as="geometry" />
        </mxCell>
        <mxCell id="j0Hyw92hqJrWt-IBXO2Z-27" value="" style="endArrow=none;html=1;rounded=0;exitX=1;exitY=0.5;exitDx=0;exitDy=0;entryX=0;entryY=0.5;entryDx=0;entryDy=0;strokeWidth=0.5;endFill=0;" edge="1" parent="1" source="j0Hyw92hqJrWt-IBXO2Z-1" target="j0Hyw92hqJrWt-IBXO2Z-21">
          <mxGeometry width="50" height="50" relative="1" as="geometry">
            <mxPoint x="350" y="420" as="sourcePoint" />
            <mxPoint x="400" y="370" as="targetPoint" />
          </mxGeometry>
        </mxCell>
        <mxCell id="j0Hyw92hqJrWt-IBXO2Z-28" value="" style="endArrow=none;html=1;rounded=0;exitX=1;exitY=0.5;exitDx=0;exitDy=0;entryX=0;entryY=0.5;entryDx=0;entryDy=0;strokeWidth=0.5;endFill=0;" edge="1" parent="1" source="j0Hyw92hqJrWt-IBXO2Z-2" target="j0Hyw92hqJrWt-IBXO2Z-21">
          <mxGeometry width="50" height="50" relative="1" as="geometry">
            <mxPoint x="100" y="205" as="sourcePoint" />
            <mxPoint x="230" y="235" as="targetPoint" />
          </mxGeometry>
        </mxCell>
        <mxCell id="j0Hyw92hqJrWt-IBXO2Z-29" value="" style="endArrow=none;html=1;rounded=0;exitX=1;exitY=0.5;exitDx=0;exitDy=0;entryX=0;entryY=0.5;entryDx=0;entryDy=0;strokeWidth=0.5;endFill=0;" edge="1" parent="1" source="j0Hyw92hqJrWt-IBXO2Z-4" target="j0Hyw92hqJrWt-IBXO2Z-21">
          <mxGeometry width="50" height="50" relative="1" as="geometry">
            <mxPoint x="110" y="215" as="sourcePoint" />
            <mxPoint x="240" y="245" as="targetPoint" />
          </mxGeometry>
        </mxCell>
        <mxCell id="j0Hyw92hqJrWt-IBXO2Z-30" value="" style="endArrow=none;html=1;rounded=0;exitX=1;exitY=0.5;exitDx=0;exitDy=0;entryX=0;entryY=0.5;entryDx=0;entryDy=0;strokeWidth=0.5;endFill=0;" edge="1" parent="1" source="j0Hyw92hqJrWt-IBXO2Z-5" target="j0Hyw92hqJrWt-IBXO2Z-21">
          <mxGeometry width="50" height="50" relative="1" as="geometry">
            <mxPoint x="120" y="225" as="sourcePoint" />
            <mxPoint x="250" y="255" as="targetPoint" />
          </mxGeometry>
        </mxCell>
        <mxCell id="j0Hyw92hqJrWt-IBXO2Z-31" value="" style="endArrow=none;html=1;rounded=0;exitX=1;exitY=0.5;exitDx=0;exitDy=0;entryX=0;entryY=0.5;entryDx=0;entryDy=0;strokeWidth=0.5;endFill=0;" edge="1" parent="1" source="j0Hyw92hqJrWt-IBXO2Z-6" target="j0Hyw92hqJrWt-IBXO2Z-21">
          <mxGeometry width="50" height="50" relative="1" as="geometry">
            <mxPoint x="130" y="235" as="sourcePoint" />
            <mxPoint x="260" y="265" as="targetPoint" />
          </mxGeometry>
        </mxCell>
        <mxCell id="j0Hyw92hqJrWt-IBXO2Z-32" value="" style="endArrow=none;html=1;rounded=0;exitX=1;exitY=0.5;exitDx=0;exitDy=0;entryX=0;entryY=0.5;entryDx=0;entryDy=0;strokeWidth=0.5;endFill=0;" edge="1" parent="1" source="j0Hyw92hqJrWt-IBXO2Z-8" target="j0Hyw92hqJrWt-IBXO2Z-21">
          <mxGeometry width="50" height="50" relative="1" as="geometry">
            <mxPoint x="140" y="245" as="sourcePoint" />
            <mxPoint x="270" y="275" as="targetPoint" />
          </mxGeometry>
        </mxCell>
        <mxCell id="j0Hyw92hqJrWt-IBXO2Z-33" value="" style="endArrow=none;html=1;rounded=0;exitX=1;exitY=0.5;exitDx=0;exitDy=0;entryX=0;entryY=0.5;entryDx=0;entryDy=0;strokeWidth=0.5;endFill=0;" edge="1" parent="1" source="j0Hyw92hqJrWt-IBXO2Z-9" target="j0Hyw92hqJrWt-IBXO2Z-21">
          <mxGeometry width="50" height="50" relative="1" as="geometry">
            <mxPoint x="150" y="255" as="sourcePoint" />
            <mxPoint x="280" y="285" as="targetPoint" />
          </mxGeometry>
        </mxCell>
      </root>
    </mxGraphModel>
  </diagram>
</mxfile>
